<svg width="184" height="240" viewBox="0 0 184 240" fill="none" xmlns="http://www.w3.org/2000/svg">
<path d="M152 76C149.301 75.9983 146.613 76.3385 144 77.0127V48C144.001 42.8309 142.75 37.7385 140.353 33.1586C137.957 28.5788 134.486 24.6478 130.238 21.7023C125.991 18.7568 121.092 16.8844 115.963 16.2454C110.834 15.6064 105.626 16.2198 100.785 18.0332C97.6251 11.5179 92.3485 6.26721 85.8178 3.13924C79.2871 0.0112677 71.8884 -0.808961 64.8312 0.812613C57.7739 2.43419 51.4753 6.40166 46.965 12.0666C42.4546 17.7315 39.9992 24.7588 40 32V33.0127C35.2712 31.7941 30.3263 31.6736 25.5437 32.6603C20.7612 33.6469 16.2677 35.7147 12.4073 38.7053C8.54688 41.6959 5.42183 45.5301 3.27131 49.9143C1.12078 54.2986 0.00180144 59.1167 0 64V148C0 172.4 9.69283 195.8 26.9462 213.054C44.1995 230.307 67.6001 240 92 240C116.4 240 139.8 230.307 157.054 213.054C174.307 195.8 184 172.4 184 148V108C183.99 99.516 180.616 91.3823 174.617 85.3832C168.618 79.3841 160.484 76.0096 152 76ZM160 148C160 166.035 152.836 183.331 140.083 196.083C127.331 208.836 110.035 216 92 216C73.9653 216 56.6692 208.836 43.9167 196.083C31.1643 183.331 24 166.035 24 148V64C24 61.8783 24.8429 59.8434 26.3431 58.3432C27.8434 56.8429 29.8783 56 32 56C34.1217 56 36.1566 56.8429 37.6569 58.3432C39.1571 59.8434 40 61.8783 40 64V108C40 111.183 41.2643 114.235 43.5147 116.485C45.7652 118.736 48.8174 120 52 120C55.1826 120 58.2348 118.736 60.4853 116.485C62.7357 114.235 64 111.183 64 108V32C64 29.8783 64.8429 27.8434 66.3431 26.3431C67.8434 24.8429 69.8783 24 72 24C74.1217 24 76.1566 24.8429 77.6569 26.3431C79.1571 27.8434 80 29.8783 80 32V100C80 103.183 81.2643 106.235 83.5147 108.485C85.7652 110.736 88.8174 112 92 112C95.1826 112 98.2348 110.736 100.485 108.485C102.736 106.235 104 103.183 104 100V48C104 45.8783 104.843 43.8434 106.343 42.3432C107.843 40.8429 109.878 40 112 40C114.122 40 116.157 40.8429 117.657 42.3432C119.157 43.8434 120 45.8783 120 48V117.397C108.618 120.114 98.4821 126.583 91.2257 135.763C83.9692 144.943 80.0149 156.298 80 168C80 171.183 81.2643 174.235 83.5147 176.485C85.7652 178.736 88.8174 180 92 180C95.1826 180 98.2348 178.736 100.485 176.485C102.736 174.235 104 171.183 104 168C104.008 160.576 106.961 153.459 112.21 148.21C117.459 142.961 124.576 140.008 132 140C135.183 140 138.235 138.736 140.485 136.485C142.736 134.235 144 131.183 144 128V108C144 105.878 144.843 103.843 146.343 102.343C147.843 100.843 149.878 100 152 100C154.122 100 156.157 100.843 157.657 102.343C159.157 103.843 160 105.878 160 108V148Z" fill="#DB9291"/>
</svg>
