<svg width="216" height="208" viewBox="0 0 216 208" fill="none" xmlns="http://www.w3.org/2000/svg">
<path d="M180 48.0001H168V36.0001C168.005 29.0487 165.995 22.2448 162.215 16.4112C158.434 10.5776 153.044 5.96414 146.698 3.12876C140.351 0.293384 133.318 -0.64252 126.451 0.434228C119.583 1.51097 113.175 4.55425 108 9.19606C103.431 5.09652 97.8884 2.23466 91.9003 0.882891C85.9123 -0.468876 79.6779 -0.265555 73.7907 1.4735C67.9035 3.21255 62.5593 6.42946 58.2669 10.818C53.9745 15.2066 50.8768 20.6207 49.2685 26.545C43.8092 24.3747 37.9015 23.5744 32.0615 24.2139C26.2215 24.8534 20.627 26.9132 15.7667 30.2135C10.9065 33.5138 6.92832 37.9541 4.17989 43.1465C1.43146 48.3388 -0.00363206 54.1252 -7.55145e-07 60.0001V100C-7.55145e-07 128.643 11.3785 156.114 31.6325 176.368C51.8864 196.621 79.3566 208 108 208C136.643 208 164.114 196.621 184.368 176.368C204.621 156.114 216 128.643 216 100V84.0001C215.989 74.4556 212.193 65.3051 205.444 58.5561C198.695 51.8072 189.544 48.0109 180 48.0001ZM132 24.0001C135.181 24.0037 138.232 25.2691 140.481 27.5187C142.731 29.7684 143.996 32.8186 144 36.0001V48.0001H120V36.0001C120.004 32.8186 121.269 29.7684 123.519 27.5187C125.768 25.2691 128.818 24.0037 132 24.0001ZM72 36.0001C72 32.8175 73.2643 29.7653 75.5147 27.5148C77.7652 25.2644 80.8174 24.0001 84 24.0001C87.1826 24.0001 90.2348 25.2644 92.4853 27.5148C94.7357 29.7653 96 32.8175 96 36.0001V76.0001C96 79.1827 94.7357 82.2349 92.4853 84.4854C90.2348 86.7358 87.1826 88.0001 84 88.0001C80.8174 88.0001 77.7652 86.7358 75.5147 84.4854C73.2643 82.2349 72 79.1827 72 76.0001V36.0001ZM24 60.0001C24 56.8175 25.2643 53.7653 27.5147 51.5148C29.7652 49.2644 32.8174 48.0001 36 48.0001C39.1826 48.0001 42.2348 49.2644 44.4853 51.5148C46.7357 53.7653 48 56.8175 48 60.0001V76.0001C48 79.1827 46.7357 82.2349 44.4853 84.4854C42.2348 86.7358 39.1826 88.0001 36 88.0001C32.8174 88.0001 29.7652 86.7358 27.5147 84.4854C25.2643 82.2349 24 79.1827 24 76.0001V60.0001ZM192 100C191.999 121.398 183.832 141.989 169.167 157.571C154.501 173.152 134.442 182.55 113.083 183.845C91.7246 185.141 70.6766 178.237 54.235 164.542C37.7934 150.848 27.1977 131.395 24.6104 110.154C30.633 112.162 37.0799 112.54 43.2958 111.249C49.5117 109.958 55.2751 107.044 60 102.804C65.8894 108.096 73.363 111.292 81.2574 111.896C89.1519 112.499 97.0245 110.476 103.65 106.141C105.505 108.519 107.649 110.656 110.033 112.503C101.008 122.118 95.9894 134.813 96 148C96 151.183 97.2643 154.235 99.5147 156.485C101.765 158.736 104.817 160 108 160C111.183 160 114.235 158.736 116.485 156.485C118.736 154.235 120 151.183 120 148C120.008 140.576 122.961 133.459 128.21 128.21C133.459 122.961 140.576 120.008 148 120C151.183 120 154.235 118.736 156.485 116.485C158.736 114.235 160 111.183 160 108C160 104.817 158.736 101.765 156.485 99.5148C154.235 97.2644 151.183 96.0001 148 96.0001H132C128.818 95.9965 125.768 94.7311 123.519 92.4815C121.269 90.2318 120.004 87.1816 120 84.0001V72.0001H180C183.181 72.0037 186.232 73.2691 188.481 75.5187C190.731 77.7684 191.996 80.8186 192 84.0001V100Z" fill="white"/>
</svg>
