<svg width="216" height="208" viewBox="0 0 216 208" fill="none" xmlns="http://www.w3.org/2000/svg">
<path d="M180 48H168V36C168.005 29.0486 165.995 22.2447 162.215 16.4111C158.434 10.5775 153.044 5.96408 146.698 3.1287C140.351 0.293323 133.318 -0.642581 126.451 0.434167C119.583 1.51091 113.175 4.55419 108 9.196C103.431 5.09646 97.8884 2.2346 91.9003 0.88283C85.9123 -0.468937 79.6779 -0.265616 73.7907 1.47344C67.9035 3.21249 62.5593 6.4294 58.2669 10.8179C53.9745 15.2065 50.8768 20.6206 49.2685 26.5449C43.8092 24.3746 37.9015 23.5743 32.0615 24.2138C26.2215 24.8533 20.627 26.9131 15.7667 30.2134C10.9065 33.5137 6.92832 37.954 4.17989 43.1464C1.43146 48.3387 -0.00363206 54.1251 -7.55158e-07 60V100C-7.55158e-07 128.643 11.3785 156.114 31.6325 176.368C51.8864 196.621 79.3566 208 108 208C136.643 208 164.114 196.621 184.368 176.368C204.621 156.114 216 128.643 216 100V84C215.989 74.4555 212.193 65.305 205.444 58.556C198.695 51.8071 189.544 48.0108 180 48V48ZM132 24C135.181 24.0036 138.232 25.269 140.481 27.5186C142.731 29.7683 143.996 32.8185 144 36V48H120V36C120.004 32.8185 121.269 29.7683 123.519 27.5186C125.768 25.269 128.818 24.0036 132 24ZM72 36C72 32.8174 73.2643 29.7652 75.5147 27.5147C77.7652 25.2643 80.8174 24 84 24C87.1826 24 90.2348 25.2643 92.4853 27.5147C94.7357 29.7652 96 32.8174 96 36V76C96 79.1826 94.7357 82.2348 92.4853 84.4853C90.2348 86.7357 87.1826 88 84 88C80.8174 88 77.7652 86.7357 75.5147 84.4853C73.2643 82.2348 72 79.1826 72 76V36ZM24 60C24 56.8174 25.2643 53.7652 27.5147 51.5147C29.7652 49.2643 32.8174 48 36 48C39.1826 48 42.2348 49.2643 44.4853 51.5147C46.7357 53.7652 48 56.8174 48 60V76C48 79.1826 46.7357 82.2348 44.4853 84.4853C42.2348 86.7357 39.1826 88 36 88C32.8174 88 29.7652 86.7357 27.5147 84.4853C25.2643 82.2348 24 79.1826 24 76V60ZM192 100C191.999 121.398 183.832 141.989 169.167 157.571C154.501 173.152 134.442 182.55 113.083 183.845C91.7246 185.141 70.6766 178.237 54.235 164.542C37.7934 150.848 27.1977 131.395 24.6104 110.154C30.633 112.162 37.0799 112.54 43.2958 111.249C49.5117 109.958 55.2751 107.044 60 102.804C65.8894 108.096 73.363 111.292 81.2574 111.896C89.1519 112.499 97.0245 110.476 103.65 106.141C105.505 108.519 107.649 110.656 110.033 112.503C101.008 122.118 95.9894 134.813 96 148C96 151.183 97.2643 154.235 99.5147 156.485C101.765 158.736 104.817 160 108 160C111.183 160 114.235 158.736 116.485 156.485C118.736 154.235 120 151.183 120 148C120.008 140.576 122.961 133.459 128.21 128.21C133.459 122.961 140.576 120.008 148 120C151.183 120 154.235 118.736 156.485 116.485C158.736 114.235 160 111.183 160 108C160 104.817 158.736 101.765 156.485 99.5147C154.235 97.2643 151.183 96 148 96H132C128.818 95.9964 125.768 94.731 123.519 92.4814C121.269 90.2317 120.004 87.1815 120 84V72H180C183.181 72.0036 186.232 73.269 188.481 75.5186C190.731 77.7683 191.996 80.8185 192 84V100Z" fill="#DB9291"/>
</svg>
