<svg width="448" height="512" viewBox="0 0 448 512" fill="none" xmlns="http://www.w3.org/2000/svg">
<g clip-path="url(#clip0_246_28)">
<path d="M362.146 191.976C348.436 170.327 323.385 157.96 297.14 161.635V74C297.14 33.196 264.329 0 223.999 0C183.669 0 150.859 33.196 150.859 74L160 168L141.321 89.15C126.578 50.843 83.85 32.11 46.209 47.208C8.73499 62.238 -9.57102 104.963 5.00798 142.85L60.765 287.777C30.208 312.733 16.771 345.586 36.032 379.995L90.885 477.994C102.625 498.97 124.73 512 148.575 512H354.277C385.021 512 411.835 490.56 418.832 460.203L446.259 341.204C447.407 336.218 447.987 331.118 447.988 326.001L448 256C448 211.044 404.737 178.657 362.146 191.976ZM399.987 326C399.987 327.488 399.818 328.977 399.485 330.423L372.058 449.424C370.08 458.006 362.768 464 354.276 464H148.575C142.089 464 136.033 460.379 132.77 454.551L77.916 356.551C73.359 348.41 75.297 337.883 82.424 332.063L109.071 310.299C111.681 308.167 113.551 305.266 114.416 302.009C115.28 298.752 115.093 295.305 113.883 292.16L49.793 125.611C37.226 92.956 84.37 74.837 96.51 106.389L156.294 261.746C157.455 264.764 159.504 267.359 162.17 269.19C164.835 271.02 167.993 272 171.227 272H182.859C191.696 272 198.859 264.837 198.859 256V74C198.859 39.625 249.14 39.57 249.14 74V256C249.14 264.837 256.303 272 265.14 272H271.996C280.833 272 287.996 264.837 287.996 256V228C287.996 202.878 324.563 202.841 324.563 228V256C324.563 264.837 331.726 272 340.563 272H347.419C356.256 272 363.419 264.837 363.419 256C363.419 230.88 399.986 230.84 399.986 256V326H399.987Z" fill="white"/>
</g>
<defs>
<clipPath id="clip0_246_28">
<rect width="448" height="512" fill="white"/>
</clipPath>
</defs>
</svg>
